<svg xmlns="http://www.w3.org/2000/svg" width="1280" height="760" viewBox="0 0 1280 760">
  <rect width="1280" height="760" fill="#f5f7fa"/>
  <text x="48" y="54" font-family="Segoe UI, sans-serif" font-size="28" font-weight="700" fill="#17202a">AcmeUI App Template Gallery</text>
  <g font-family="Segoe UI, sans-serif">
    <g transform="translate(48 88)">
      <rect width="560" height="270" rx="18" fill="#ffffff" stroke="#d7dee7"/>
      <text x="24" y="34" font-size="18" font-weight="700" fill="#17202a">Voice Dictation</text>
      <rect x="24" y="52" width="512" height="34" rx="8" fill="#eef1f5"/>
      <rect x="174" y="106" width="212" height="62" rx="31" fill="#2764e7"/>
      <text x="229" y="144" font-size="16" font-weight="600" fill="#ffffff">Start recording</text>
      <rect x="24" y="188" width="512" height="56" rx="10" fill="#f7f8fa" stroke="#dce2e8"/>
      <text x="40" y="221" font-size="14" fill="#66717f">Transcript workspace</text>
    </g>
    <g transform="translate(672 88)">
      <rect width="560" height="270" rx="18" fill="#ffffff" stroke="#d7dee7"/>
      <text x="24" y="34" font-size="18" font-weight="700" fill="#17202a">Dashboard</text>
      <rect x="24" y="52" width="512" height="34" rx="8" fill="#edf1f6"/>
      <rect x="24" y="102" width="154" height="62" rx="10" fill="#ffffff" stroke="#d7dee7"/>
      <rect x="194" y="102" width="154" height="62" rx="10" fill="#ffffff" stroke="#d7dee7"/>
      <rect x="364" y="102" width="172" height="62" rx="10" fill="#ffffff" stroke="#d7dee7"/>
      <rect x="24" y="180" width="512" height="64" rx="10" fill="#f5f7fa" stroke="#d7dee7"/>
    </g>
    <g transform="translate(48 408)">
      <rect width="560" height="270" rx="18" fill="#ffffff" stroke="#dddee2"/>
      <text x="24" y="34" font-size="18" font-weight="700" fill="#1c1c1f">Settings</text>
      <rect x="24" y="56" width="140" height="186" rx="10" fill="#f0f1f3"/>
      <rect x="184" y="56" width="352" height="34" rx="8" fill="#fafafb" stroke="#dddee2"/>
      <rect x="184" y="106" width="352" height="34" rx="8" fill="#fafafb" stroke="#dddee2"/>
      <rect x="184" y="156" width="352" height="34" rx="8" fill="#fafafb" stroke="#dddee2"/>
      <rect x="400" y="208" width="136" height="34" rx="8" fill="#4255d4"/>
    </g>
    <g transform="translate(672 408)">
      <rect width="560" height="270" rx="18" fill="#171a1f" stroke="#323741"/>
      <text x="24" y="34" font-size="18" font-weight="700" fill="#f5f6f8">Media Studio</text>
      <rect x="24" y="50" width="512" height="30" rx="6" fill="#22262d"/>
      <rect x="24" y="96" width="110" height="108" rx="8" fill="#22262d"/>
      <rect x="148" y="96" width="264" height="108" rx="8" fill="#0e1013" stroke="#323741"/>
      <rect x="426" y="96" width="110" height="108" rx="8" fill="#22262d"/>
      <rect x="24" y="218" width="512" height="30" rx="6" fill="#22262d"/>
    </g>
  </g>
</svg>
